<svg width="24" height="25" viewBox="0 0 24 25" fill="none" xmlns="http://www.w3.org/2000/svg">
<g id="Gear">
<path id="Vector" d="M12 17.3968C14.4853 17.3968 16.5 15.3933 16.5 12.9219C16.5 10.4505 14.4853 8.44702 12 8.44702C9.51472 8.44702 7.5 10.4505 7.5 12.9219C7.5 15.3933 9.51472 17.3968 12 17.3968Z" stroke="black" stroke-width="2" stroke-linecap="round" stroke-linejoin="round"/>
<path id="Vector_2" d="M17.2223 7.05643C17.4598 7.27396 17.6848 7.49771 17.8973 7.72766L20.4566 8.09125C20.8737 8.81143 21.1951 9.58231 21.4129 10.3846L19.8566 12.4449C19.8566 12.4449 19.8848 13.0789 19.8566 13.3959L21.4129 15.4562C21.1961 16.2588 20.8746 17.0298 20.4566 17.7495L17.8973 18.1131C17.8973 18.1131 17.4566 18.5699 17.2223 18.7844L16.8566 21.3295C16.1324 21.7441 15.3572 22.0638 14.5504 22.2804L12.4785 20.7328C12.1604 20.7608 11.8404 20.7608 11.5223 20.7328L9.45039 22.2804C8.64322 22.0648 7.86789 21.7451 7.14414 21.3295L6.77852 18.7844C6.54727 18.5668 6.32227 18.3431 6.10352 18.1131L3.54414 17.7495C3.12712 17.0294 2.8057 16.2585 2.58789 15.4562L4.14414 13.3959C4.14414 13.3959 4.11602 12.7619 4.14414 12.4449L2.58789 10.3846C2.80469 9.58197 3.12617 8.81096 3.54414 8.09125L6.10352 7.72766C6.32227 7.49771 6.54727 7.27396 6.77852 7.05643L7.14414 4.51134C7.86836 4.09665 8.64357 3.77702 9.45039 3.56042L11.5223 5.10799C11.8404 5.08002 12.1604 5.08002 12.4785 5.10799L14.5504 3.56042C15.3576 3.77601 16.1329 4.0957 16.8566 4.51134L17.2223 7.05643Z" stroke="black" stroke-width="2" stroke-linecap="round" stroke-linejoin="round"/>
</g>
</svg>
