<svg width="24" height="25" viewBox="0 0 24 25" fill="none" xmlns="http://www.w3.org/2000/svg">
<g id="Home">
<g id="House">
<path id="Vector" d="M14.25 20.2786V15.8037C14.25 15.6059 14.171 15.4162 14.0303 15.2763C13.8897 15.1364 13.6989 15.0579 13.5 15.0579H10.5C10.3011 15.0579 10.1103 15.1364 9.96967 15.2763C9.82902 15.4162 9.75 15.6059 9.75 15.8037V20.2786C9.75 20.4764 9.67098 20.6661 9.53033 20.8059C9.38968 20.9458 9.19891 21.0244 9 21.0244H4.5C4.30109 21.0244 4.11032 20.9458 3.96967 20.8059C3.82902 20.6661 3.75 20.4764 3.75 20.2786V11.6551C3.75168 11.5519 3.77411 11.45 3.81597 11.3556C3.85783 11.2611 3.91828 11.1759 3.99375 11.105L11.4937 4.32745C11.632 4.20167 11.8126 4.13191 12 4.13191C12.1874 4.13191 12.368 4.20167 12.5062 4.32745L20.0062 11.105C20.0817 11.1759 20.1422 11.2611 20.184 11.3556C20.2259 11.45 20.2483 11.5519 20.25 11.6551V20.2786C20.25 20.4764 20.171 20.6661 20.0303 20.8059C19.8897 20.9458 19.6989 21.0244 19.5 21.0244H15C14.8011 21.0244 14.6103 20.9458 14.4697 20.8059C14.329 20.6661 14.25 20.4764 14.25 20.2786Z" stroke="black" stroke-width="2" stroke-linecap="round" stroke-linejoin="round"/>
</g>
</g>
</svg>
