<svg width="24" height="25" viewBox="0 0 24 25" fill="none" xmlns="http://www.w3.org/2000/svg">
<g id="Question">
<path id="Vector" d="M12 21.6038C16.9706 21.6038 21 17.5968 21 12.654C21 7.71117 16.9706 3.70422 12 3.70422C7.02944 3.70422 3 7.71117 3 12.654C3 17.5968 7.02944 21.6038 12 21.6038Z" stroke="black" stroke-width="2" stroke-linecap="round" stroke-linejoin="round"/>
<path id="Vector_2" d="M12 18.6205C12.6213 18.6205 13.125 18.1196 13.125 17.5018C13.125 16.8839 12.6213 16.3831 12 16.3831C11.3787 16.3831 10.875 16.8839 10.875 17.5018C10.875 18.1196 11.3787 18.6205 12 18.6205Z" fill="black"/>
<path id="Vector_3" d="M12 14.1456V13.3998C12.5192 13.3998 13.0267 13.2467 13.4584 12.9599C13.8901 12.673 14.2265 12.2653 14.4252 11.7884C14.6239 11.3114 14.6758 10.7865 14.5746 10.2802C14.4733 9.77382 14.2233 9.3087 13.8562 8.94363C13.489 8.57857 13.0213 8.32996 12.5121 8.22924C12.0029 8.12851 11.4751 8.18021 10.9955 8.37778C10.5158 8.57535 10.1058 8.90993 9.81739 9.3392C9.52895 9.76847 9.375 10.2732 9.375 10.7894" stroke="black" stroke-width="2" stroke-linecap="round" stroke-linejoin="round"/>
</g>
</svg>
